<svg width="24" height="24" viewBox="0 0 24 24" fill="none" xmlns="http://www.w3.org/2000/svg">
<path d="M22.6813 9.56507L20.0413 3.98959C19.5243 2.89069 18.1493 2 16.9833 2H7.01717C5.85116 2 4.47615 2.89069 3.95914 3.98959L1.3191 9.56507C0.681098 10.9069 1.0331 12.8155 2.07811 13.8219L9.7012 21.0977C10.9662 22.3008 13.0232 22.3008 14.2882 21.0977L21.9113 13.8219C22.9673 12.8155 23.3193 10.8953 22.6813 9.56507ZM16.4003 8.81319H12.8252V14.8861C12.8252 15.3603 12.4512 15.7536 12.0002 15.7536C11.5492 15.7536 11.1752 15.3603 11.1752 14.8861V8.81319H7.60017C7.14917 8.81319 6.77517 8.4199 6.77517 7.94563C6.77517 7.47137 7.14917 7.07808 7.60017 7.07808H16.4003C16.8513 7.07808 17.2253 7.47137 17.2253 7.94563C17.2253 8.4199 16.8513 8.81319 16.4003 8.81319Z" fill="#50C787"/>
</svg>
